<svg width="26" height="26" viewBox="0 0 26 26" fill="none" xmlns="http://www.w3.org/2000/svg">
    <path fill-rule="evenodd" clip-rule="evenodd" d="M16.4976 0.296342C16.7309 0.180481 17.001 0.16138 17.2486 0.243238C17.4961 0.325095 17.7008 0.501212 17.8176 0.732876L20.1965 5.45786C20.7581 5.48653 21.2685 5.52953 21.7317 5.59599C23.1174 5.79276 24.2642 6.21756 25.0791 7.21833C25.8939 8.22041 26.0724 9.42185 25.9766 10.8083C25.8847 12.1518 25.5173 13.8471 25.0607 15.9646L24.4689 18.7102C24.1605 20.1397 23.9099 21.2982 23.595 22.2025C23.267 23.1473 22.834 23.9226 22.0965 24.5155C21.3591 25.1084 20.5036 25.3651 19.5063 25.4863C18.5485 25.6023 17.3544 25.6023 15.8848 25.6023H10.1165C8.6443 25.6023 7.45155 25.6023 6.49368 25.4863C5.49644 25.3651 4.64091 25.1084 3.90348 24.5155C3.16474 23.9226 2.73304 23.1473 2.405 22.2038C2.09008 21.2982 1.84077 20.1397 1.5311 18.7115L0.939321 15.9659C0.482691 13.8471 0.116599 12.1518 0.0234364 10.8083C-0.072351 9.42185 0.106102 8.22041 0.920951 7.21833C1.73449 6.21756 2.88131 5.79276 4.26695 5.59599C4.73014 5.53084 5.24188 5.48653 5.80217 5.45786L8.18505 0.732876C8.30284 0.503051 8.50733 0.328778 8.75395 0.248034C9.00058 0.167289 9.26934 0.186619 9.50167 0.30181C9.734 0.417002 9.91107 0.618718 9.9943 0.862999C10.0775 1.10728 10.0601 1.37433 9.94596 1.60594L8.03021 5.40704C8.50784 5.40444 9.01039 5.40444 9.53788 5.40444H16.4634C16.9909 5.40444 17.4935 5.40444 17.9711 5.40704L16.0567 1.60594C15.94 1.3742 15.9208 1.10594 16.0032 0.860124C16.0856 0.614306 16.263 0.411052 16.4962 0.295039L16.4976 0.296342ZM4.77606 7.4998L4.24727 8.55009C4.18835 8.66503 4.15293 8.79043 4.14304 8.91904C4.13316 9.04764 4.149 9.17692 4.18967 9.29942C4.23034 9.42192 4.29502 9.53521 4.37998 9.63276C4.46495 9.73031 4.56852 9.8102 4.68472 9.86782C4.80092 9.92543 4.92746 9.95963 5.05703 9.96845C5.18661 9.97726 5.31666 9.96052 5.43969 9.91918C5.56272 9.87785 5.6763 9.81274 5.77387 9.7276C5.87143 9.64247 5.95107 9.539 6.00818 9.42315L7.04085 7.3721C7.78877 7.35907 8.64167 7.35776 9.61792 7.35776H16.3834C17.3596 7.35776 18.2125 7.35776 18.9605 7.37079L19.9931 9.42315C20.1109 9.65298 20.3154 9.82725 20.562 9.908C20.8087 9.98874 21.0774 9.96941 21.3098 9.85422C21.5421 9.73903 21.7192 9.53731 21.8024 9.29303C21.8856 9.04875 21.8682 8.7817 21.754 8.55009L21.2252 7.4998L21.4536 7.52977C22.6135 7.69526 23.1817 7.99627 23.5491 8.44584C23.9099 8.88889 24.0871 9.49222 24.0162 10.6155H1.98511C1.91425 9.49222 2.09139 8.88889 2.45224 8.44584C2.81964 7.99627 3.3878 7.69526 4.54775 7.52977L4.77606 7.4998ZM2.88131 15.6337C2.65574 14.6161 2.44534 13.5952 2.25016 12.5714H23.7512C23.5552 13.5951 23.3444 14.616 23.1187 15.6337L22.5571 18.2398C22.2317 19.7449 22.006 20.7861 21.7344 21.5653C21.4719 22.3211 21.2043 22.7198 20.8592 22.9961C20.5154 23.2723 20.0653 23.4496 19.2688 23.546C18.4435 23.6463 17.3701 23.6476 15.8205 23.6476H10.1795C8.63118 23.6476 7.55784 23.6463 6.73249 23.546C5.9347 23.4496 5.48594 23.2723 5.14216 22.9961C4.79706 22.7198 4.52807 22.3198 4.26695 21.5653C3.99533 20.7861 3.76833 19.7449 3.44423 18.2398L2.88131 15.6337Z" fill="#F8F8F8"/>
    </svg>
    