<svg width="53" height="53" viewBox="0 0 53 53" fill="none" xmlns="http://www.w3.org/2000/svg">
<g clip-path="url(#clip0_162_3)">
<path d="M53 22.0829L46.0819 37.5407H43.942L46.5125 32.1314L41.9578 22.0812H44.2087L47.5046 29.7845H47.5477L50.7393 22.0812L53 22.0829ZM24.2575 26.8628V33.1251H22.0828V17.6673H27.8366C29.2025 17.6299 30.5325 18.1069 31.5632 19.0039C32.5818 19.8403 33.1416 21.0229 33.125 22.2734C33.1321 22.9027 32.995 23.5252 32.7242 24.0933C32.4535 24.6615 32.0564 25.1601 31.5632 25.5511C30.5628 26.4306 29.3206 26.8628 27.8366 26.8628H24.2575ZM24.2492 19.5737V24.9648H27.8896C28.6822 24.9932 29.454 24.7082 30.0378 24.1714C30.5993 23.6712 30.909 22.9889 30.909 22.2816C30.909 21.5661 30.5976 20.8838 30.0378 20.3919C29.7519 20.1197 29.4147 19.9071 29.046 19.7664C28.6772 19.6256 28.2842 19.5596 27.8896 19.572L24.2492 19.5737ZM37.481 22.0829C38.8606 22.0829 39.9571 22.4705 40.7587 23.239C41.5603 24.0075 41.9578 25.0592 41.9578 26.3958V32.7872H40.1641V31.3463H40.0863C39.3095 32.5289 38.2826 33.1235 36.9974 33.1235C35.8926 33.1235 34.9784 32.7872 34.2364 32.1049C33.8784 31.788 33.5934 31.3971 33.4013 30.9593C33.2091 30.5215 33.1143 30.0472 33.1234 29.5691C33.1234 28.4992 33.5109 27.6462 34.296 27.0069C35.0728 26.3776 36.1162 26.0579 37.418 26.0579C38.531 26.0579 39.4453 26.2732 40.1608 26.6955V26.2467C40.1631 25.9209 40.0957 25.5983 39.9632 25.3007C39.8306 25.003 39.636 24.7372 39.3923 24.5209C38.9014 24.0614 38.2527 23.8082 37.5804 23.8137C36.5369 23.8137 35.7088 24.2708 35.096 25.1851L33.448 24.1151C34.354 22.7603 35.6989 22.0796 37.476 22.0796L37.481 22.0829ZM35.0579 29.6139C35.0542 29.8593 35.1085 30.1021 35.2164 30.3226C35.3244 30.5431 35.4829 30.7349 35.679 30.8826C36.093 31.2188 36.6115 31.401 37.1365 31.391C37.9215 31.391 38.6801 31.0631 39.2416 30.4851C39.8362 29.9335 40.174 29.1567 40.174 28.3452C39.5877 27.8616 38.7762 27.6197 37.7327 27.6197C36.9642 27.6197 36.3349 27.8102 35.8264 28.1895C35.3179 28.5771 35.0579 29.0458 35.0579 29.6139ZM9.01501 17.6673C11.245 17.6404 13.4014 18.4643 15.0454 19.9712L12.4749 22.4903C11.5359 21.6191 10.2957 21.146 9.01501 21.1703C7.89742 21.1758 6.8093 21.5293 5.9019 22.1817C4.9945 22.8341 4.3129 23.7531 3.95185 24.8107C3.57249 25.9062 3.57249 27.0974 3.95185 28.1928C4.3129 29.2505 4.9945 30.1694 5.9019 30.8218C6.8093 31.4742 7.89742 31.8278 9.01501 31.8332C10.2307 31.8332 11.2758 31.5318 12.0857 30.9968C12.5517 30.6934 12.951 30.2983 13.2593 29.8356C13.5677 29.3729 13.7787 28.8523 13.8794 28.3054H9.01335V24.9068H17.5099C17.6143 25.5014 17.6656 26.0976 17.6656 26.7005C17.6656 29.3919 16.6818 31.6693 14.9825 33.2046C13.4902 34.5511 11.4464 35.3346 9.01335 35.3346C7.35265 35.343 5.72178 34.8933 4.30017 34.0347C2.87856 33.1762 1.7213 31.9422 0.955699 30.4685C0.326239 29.2404 -0.00204468 27.8801 -0.00204468 26.5001C-0.00204468 25.1201 0.326239 23.7599 0.955699 22.5317C1.72038 21.0594 2.87606 19.8263 4.29578 18.9678C5.7155 18.1094 7.34435 17.6589 9.00342 17.6657L9.01501 17.6673Z" fill="#F8F8F8"/>
</g>
<defs>
<clipPath id="clip0_162_3">
<rect width="53" height="53" fill="white"/>
</clipPath>
</defs>
</svg>
