<svg width="30" height="30" viewBox="0 0 30 30" fill="none" xmlns="http://www.w3.org/2000/svg">
<path d="M19.1875 6.9374C18.2377 6.93723 17.3257 7.30987 16.6478 7.97516C15.9699 8.64045 15.5802 9.54524 15.5625 10.4949L15.5275 12.4636C15.5256 12.5695 15.5014 12.6737 15.4563 12.7694C15.4113 12.8652 15.3465 12.9504 15.2663 13.0193C15.186 13.0883 15.092 13.1395 14.9905 13.1695C14.8891 13.1995 14.7824 13.2078 14.6775 13.1936L12.725 12.9274C10.1587 12.5774 7.69875 11.3961 5.33749 9.4299C4.59124 13.5674 6.04999 16.4336 9.56625 18.6449L11.75 20.0174C11.8536 20.0825 11.9396 20.1721 12.0007 20.2781C12.0617 20.3841 12.0959 20.5035 12.1002 20.6258C12.1045 20.7481 12.0789 20.8696 12.0254 20.9797C11.972 21.0898 11.8925 21.1851 11.7937 21.2574L9.80374 22.7124C10.9875 22.7874 12.1112 22.7349 13.0437 22.5499C18.9412 21.3724 22.8625 16.9349 22.8625 9.6149C22.8625 9.0174 21.5962 6.9374 19.1875 6.9374ZM13.0625 10.4499C13.0843 9.24496 13.4611 8.07324 14.1457 7.08143C14.8303 6.08962 15.7922 5.3218 16.9111 4.87411C18.03 4.42642 19.2561 4.31875 20.4359 4.56458C21.6157 4.81042 22.6968 5.39883 23.5437 6.25615C24.4325 6.2499 25.1887 6.4749 26.8787 5.44865C26.4612 7.49865 26.2537 8.3899 25.3625 9.61365C25.3625 19.1649 19.4912 23.8111 13.5325 24.9999C9.44875 25.8149 3.5075 24.4762 1.8075 22.6974C2.67375 22.6311 6.19875 22.2524 8.23625 20.7599C6.51125 19.6224 -0.348755 15.5849 4.16 4.7324C6.27625 7.20365 8.42249 8.8849 10.5975 9.77865C12.0437 10.3724 12.4 10.3599 13.0637 10.4511L13.0625 10.4499Z" fill="#F8F8F8"/>
</svg>
