<svg width="53" height="53" viewBox="0 0 53 53" fill="none" xmlns="http://www.w3.org/2000/svg">
<path d="M36.5236 20.2857C35.497 19.9116 34.4119 19.7239 33.3193 19.7314C29.786 19.7314 27.2906 21.5113 27.2729 24.0664C27.2508 25.9435 29.0462 27.0012 30.4043 27.6284C31.7978 28.2732 32.2637 28.6796 32.2593 29.256C32.2505 30.1327 31.1463 30.5302 30.1194 30.5302C28.7083 30.5302 27.9376 30.3336 26.7517 29.8412L26.3123 29.6358L25.811 32.5773C26.67 32.935 28.2181 33.242 29.8169 33.2685C33.5733 33.2685 36.0289 31.4996 36.0576 28.7812C36.0886 27.2817 35.1169 26.1488 33.072 25.2125C31.8287 24.6052 31.058 24.1989 31.058 23.5827C31.058 23.0373 31.7183 22.4543 33.0985 22.4543C34.0171 22.4321 34.9299 22.6044 35.7772 22.96L36.1084 23.108L36.6097 20.2658L36.5236 20.2857ZM45.6926 19.9699H42.9322C42.0732 19.9699 41.4261 20.2062 41.0507 21.0586L35.7419 33.0852H39.4982L40.2491 31.1132L44.8336 31.1176C44.9418 31.5791 45.273 33.0852 45.273 33.0852H48.5855L45.6926 19.9699ZM22.1915 19.8595H25.7712L23.532 32.9814H19.9567L22.1915 19.8551V19.8595ZM13.1042 27.0918L13.4752 28.9137L16.9732 19.9699H20.7649L15.1315 33.0675H11.3486L8.25694 21.9773C8.20687 21.7944 8.08927 21.6374 7.9279 21.5378C6.81358 20.9622 5.63288 20.5254 4.41223 20.2371L4.46081 19.9611H10.2224C11.0041 19.992 11.6335 20.2371 11.8433 21.0719L13.102 27.0984L13.1042 27.0918ZM41.2759 28.43L42.7025 24.7598C42.6849 24.7995 42.9962 24.0023 43.1773 23.5099L43.4224 24.6427L44.2506 28.4278H41.2737L41.2759 28.43Z" fill="#F8F8F8"/>
</svg>
